<?xml version="1.0" encoding="utf-8"?>
<!--
	This program and the accompanying materials are made available under the
	terms of the MIT license (X11 license) which accompanies this distribution.
	
	Author: Christoff Bürger
-->
<!DOCTYPE svg PUBLIC "-//W3C//DTD SVG 1.1//EN" "http://www.w3.org/Graphics/SVG/1.1/DTD/svg11.dtd">
<svg
	version="1.1"
	id="Layer_1"
	xmlns="http://www.w3.org/2000/svg"
	xmlns:xlink="http://www.w3.org/1999/xlink"
	x="0px"
	y="0px"
	viewBox="0 0 64 64"
	enable-background="new 0 0 64 64"
	xml:space="preserve">
<g id="XMLID_5_">
	<g>
		<g>
			<path
				fill="#FFD41D"
				d="M32,46H21v-6c-6-3.7-10-10.4-10-18c0-11.6,9.4-21,21-21s21,9.4,21,21c0,7.6-4,14.3-10,18v6H32z"
			/>
		</g>
		<g>
			<path
				fill="#93B9CC"
				d="M43,51v3c0,1.1-0.9,2-2,2h-2H25h-2c-1.1,0-2-0.9-2-2v-3H43z"
			/>
		</g>
		<g>
			<polygon
				fill="#A8DBEF"
				points="43,46 43,51 21,51 21,46 32,46"
			/>
		</g>
		<g>
			<path
				fill="#2B3E42"
				d="M25,56h14c0,3.9-3.1,7-7,7S25,59.9,25,56z"
			/>
		</g>
	</g>
	<path
		fill="#2D2D2D"
		d="M32,0C19.9,0,10,9.9,10,22c0,7.5,3.8,14.5,10,18.5V46v1v7c0,1.7,1.3,3,3,3h1.1c0.5,3.9,3.9,7,7.9,7
		s7.4-3.1,7.9-7H41c1.7,0,3-1.3,3-3v-7v-1v-5.5c6.2-4,10-11.1,10-18.5C54,9.9,44.1,0,32,0z M32,62c-3,0-5.4-2.2-5.9-5h11.8
		C37.4,59.8,35,62,32,62z M41,55H23c-0.6,0-1-0.4-1-1v-2h20v2C42,54.6,41.6,55,41,55z M42,50H22v-3h20V50z M42.5,39.1L42,39.4V45h-9
		V28.5l4-3.2l4.4,3.5c0.4,0.3,1.1,0.3,1.4-0.2c0.3-0.4,0.3-1.1-0.2-1.4L37,22.7l-5,4l-5-4l-5.6,4.5c-0.4,0.3-0.5,1-0.2,1.4
		c0.3,0.4,1,0.5,1.4,0.2l4.4-3.5l4,3.2V45h-9v-5.6l-0.5-0.3C15.6,35.5,12,29,12,22c0-11,9-20,20-20s20,9,20,20
		C52,29,48.4,35.5,42.5,39.1z"
	/>
</g>
</svg>
